<?xml version="1.0" encoding="utf-8"?>
<!-- Generator: Adobe Illustrator 30.7.0, SVG Export Plug-In . SVG Version: 9.03 Build 0)  -->
<svg version="1.1" baseProfile="tiny" id="Capa_1" xmlns="http://www.w3.org/2000/svg" xmlns:xlink="http://www.w3.org/1999/xlink"
	 x="0px" y="0px" viewBox="0 0 800 500" overflow="visible" xml:space="preserve">
<path fill-rule="evenodd" fill="#001391" d="M745,475H55c-16.57,0-30-13.43-30-30V55c0-16.57,13.43-30,30-30h690
	c16.57,0,30,13.43,30,30v390C775,461.57,761.57,475,745,475z"/>
<path fill="#FFFFFF" d="M691.42,344.07L666.56,344l-0.08-14.69l31.63,0.04l0.02-12.69l-46.57,0.13l0.03,68.52l48.24,0.01l0.16-12.31
	l-33.43-0.06l-0.09-16.83l26.9,0.04L691.42,344.07z M209.83,210.35c10.23-5.75,16.8-15.52,16.8-29.51v0
	c0-24.16-19.59-43.75-43.75-43.75H100v157.85h86.87c25.85,0,46.81-20.96,46.81-46.81v0C233.69,230.62,224.07,217.2,209.83,210.35z
	 M126.36,160.38h53.52c11.3,0,20.47,9.16,20.47,20.47v0c0,11.3-9.16,20.47-20.47,20.47h-53.52V160.38z M207.4,248.13
	c0,13-10.54,23.54-23.54,23.54h-57.51v-47.07h57.51C196.87,224.59,207.4,235.13,207.4,248.13L207.4,248.13z M368.26,210.35
	c10.23-5.75,16.8-15.52,16.8-29.51v0c0-24.16-19.59-43.75-43.75-43.75h-82.88v157.85h86.87c25.85,0,46.81-20.96,46.81-46.81v0
	C392.12,230.62,382.5,217.2,368.26,210.35z M284.8,160.38h53.52c11.3,0,20.47,9.16,20.47,20.47v0c0,11.3-9.16,20.47-20.47,20.47
	H284.8V160.38z M365.84,248.13c0,13-10.54,23.54-23.54,23.54H284.8v-47.07h57.51C355.3,224.59,365.84,235.13,365.84,248.13
	L365.84,248.13z M534.46,137.49h25.33c1.51,0,2.47,1.61,1.77,2.94l-81.64,153.51c-0.98,1.84-3.61,1.84-4.59,0l-81.64-153.51
	c-0.71-1.33,0.26-2.94,1.77-2.94h25.33c0.74,0,1.42,0.41,1.77,1.06l52.78,99.24c0.98,1.84,3.61,1.84,4.59,0l52.78-99.24
	C533.04,137.9,533.72,137.49,534.46,137.49z M558.98,272.51h-25.33c-1.51,0-2.47-1.61-1.77-2.94l81.64-153.51
	c0.98-1.84,3.61-1.84,4.59,0l81.64,153.51c0.71,1.33-0.26,2.94-1.77,2.94h-25.33c-0.74,0-1.42-0.41-1.77-1.06l-52.78-99.24
	c-0.98-1.84-3.61-1.84-4.59,0l-52.78,99.24C560.4,272.1,559.72,272.51,558.98,272.51z M588.75,316.61v68.7h15.01v-24.27h16
	c12.27,0,22.21-9.94,22.21-22.21v0c0-12.27-9.94-22.21-22.21-22.21H588.75z M616.74,349.05h-12.97V328.6h12.97
	c5.65,0,10.23,4.58,10.23,10.23v0C626.96,344.47,622.38,349.05,616.74,349.05z"/>
</svg>
