<?xml version="1.0" encoding="utf-8"?>
<!-- Generator: Adobe Illustrator 30.7.0, SVG Export Plug-In . SVG Version: 9.03 Build 0)  -->
<svg version="1.1" baseProfile="tiny" id="Capa_1" xmlns="http://www.w3.org/2000/svg" xmlns:xlink="http://www.w3.org/1999/xlink"
	 x="0px" y="0px" viewBox="0 0 800 500" overflow="visible" xml:space="preserve">
<g>
	<path fill-rule="evenodd" fill="#002993" d="M745,475l-690,0c-16.57,0-30-13.43-30-30l0-390c0-16.57,13.43-30,30-30l690,0
		c16.57,0,30,13.43,30,30l0,390C775,461.57,761.57,475,745,475z"/>
	<g>
		<path fill="#FFFFFF" d="M246.53,292.78l7.83-35.02l10.83,0c15.32,0,28.04,4.28,27.7,18.4c-0.38,15.95-16.71,22.45-34.57,22.45
			c-2.8,0-5.46,0-7.95-0.09C245.4,298.08,246.53,292.78,246.53,292.78 M327.61,276.96c0-21.02-14.85-30.2-26.88-31.09
			c15.18-2.53,35.23-13.68,35.23-34.22c0-21.93-22.02-33.64-55.24-33.64c-15.11,0-29.78,1.27-42.89,3.39l-23.81,105.57
			c0,0-8.22,27.3,15.17,32.98c6.55,1.6,11.04,2.2,18.31,2.6C309.63,325.99,327.61,298.08,327.61,276.96 M266.85,202.54
			c2.52-0.41,8.56-0.78,14.31-0.78c12.53,0,21.37,4.38,21.11,14.52c-0.31,12.3-12.81,19.28-30.81,19.28h-7.01
			c-5.1,0-3.62-5.83-3.62-5.83L266.85,202.54z"/>
		<path fill="#FFFFFF" d="M479.48,322.93c5.03,0,14.55-1.95,17.79-16.43c2.61-11.55,6.93-31.11,6.93-31.11
			c3.37,0.24,8.06,0.84,13.52,0.84c53.21,0,71.71-34.2,71.71-57.43c0-25.35-17.64-39.91-56.11-40.04
			c-15.76-0.14-29.37,0.45-42.32,3.44l-31.25,140.74H479.48z M522.27,203.55c2.72-0.4,7.44-0.71,13.79-0.71
			c12.32,0,22.61,3.66,22.61,18.53c0,15.08-11.49,29.67-33.86,29.85c-1.47,0-2.81-0.05-4.05-0.09c-10.02,0-7.21-8.34-7.21-8.34
			L522.27,203.55z"/>
		<path fill="#FFFFFF" d="M381.71,260.76c0-22.91,14.87-57.11,48.93-57.11c8.91,0,24.89,2.29,34.08,10.5c0,0,3.43-11.65,4.43-16.51
			c0.96-4.73-0.83-12.65-15.41-17.36c-9.46-3.05-16.85-4.5-27.31-4.5c-53.3,0-80.89,43.77-80.89,86.85
			c0,46.05,30.8,61.59,62.37,61.59c11.34,0,18.81-1.2,25.89-3.85c8.75-3.05,10.21-10.93,10.21-10.93l5.27-23.64
			c-13.45,9.83-23.39,11.37-32.52,11.37C394.6,297.17,381.71,282.97,381.71,260.76"/>
		<path fill="#F36708" d="M195.42,226.89c1.07,1.45,13.8,17.3,2.07,36.05c-12.82,20.51-47.88,43.88-57.81,47.39
			c-19.29,8.08-32.36-6.91-33.48-8.47c-3.59-4.64-4.47-5.63-6.2-9.01c-0.35,0.58,37.21-17.16,50.44-39.34
			c13.22-22.18,15.61-52.99,2.48-62.87c-0.19-0.13-0.38-0.28-0.57-0.39c-0.15-0.09-0.29-0.22,0.03-0.05
			c5.51,2.97,15.31,8.94,24.25,16.92C186.83,215.71,195.62,227.02,195.42,226.89"/>
		<path fill="#FFFFFF" d="M146.73,244.64c9.48-19.58,9.83-46.79-2.97-53.53c-11.68-6.39-26.35,8.85-27.05,9.66
			c0,0-4.86,5.22-8.76,12.73c2.28,1.42,6.65,3.95,6.65,3.95C123.59,222.47,135.66,231.04,146.73,244.64"/>
		<path fill="#F36708" d="M692.97,226.89c1.08,1.45,13.83,17.3,2.09,36.05c-12.84,20.51-47.89,43.88-57.83,47.39
			c-19.28,8.08-32.36-6.91-33.47-8.47c-3.59-4.64-4.46-5.63-6.21-9.01c-0.34,0.58,37.23-17.16,50.45-39.34
			c13.23-22.18,15.6-52.99,2.49-62.87c-0.19-0.13-0.39-0.28-0.56-0.39c-0.17-0.09-0.29-0.22,0.02-0.05
			c5.49,2.97,15.3,8.94,24.26,16.92C684.39,215.71,693.16,227.02,692.97,226.89"/>
		<path fill="#FFFFFF" d="M644.3,244.64c9.47-19.58,9.81-46.79-2.99-53.53c-11.68-6.39-26.34,8.85-27.04,9.66
			c0,0-4.87,5.22-8.78,12.73c2.31,1.42,6.68,3.95,6.68,3.95C621.15,222.47,633.21,231.04,644.3,244.64"/>
	</g>
</g>
</svg>
