<?xml version="1.0" encoding="iso-8859-1"?>
<!-- Generator: Adobe Illustrator 30.7.0, SVG Export Plug-In . SVG Version: 9.03 Build 0)  -->
<svg version="1.1" id="Capa_1" xmlns="http://www.w3.org/2000/svg" xmlns:xlink="http://www.w3.org/1999/xlink" x="0px" y="0px"
	 viewBox="0 0 800 500" style="enable-background:new 0 0 800 500;" xml:space="preserve">
<path style="fill-rule:evenodd;clip-rule:evenodd;fill:#121315;" d="M745,475H55c-16.57,0-30-13.43-30-30V55c0-16.57,13.43-30,30-30
	h690c16.57,0,30,13.43,30,30v390C775,461.57,761.57,475,745,475z"/>
<g>
	<path style="fill:#FFFFFF;" d="M341.37,260.64c6.64,20.4,27.81,31.68,47.98,23.05c8.6-3.68,15.22-10.34,19.54-18.59
		c0.52-1,1.5-1.13,2.38-0.56l15.77,10.09c1.07,0.68,1.1,1.56,0.58,2.61c-6.69,13.46-17.93,23.82-32.32,28.7
		c-22.87,7.74-48.67,1.07-64.77-16.87c-15.86-17.67-19.34-44.26-12.5-66.37c5.54-17.92,18.81-31.86,36.33-38.34
		c28.94-10.69,61.08,0.87,73.99,29.64l-17.28,11.17c-0.73,0.47-1.62,0.21-2.05-0.51c-3.66-6.92-8.88-12.79-15.63-16.74
		c-13.43-7.87-29.7-6.3-41.22,4.14C339.09,223.91,335.99,244.11,341.37,260.64z M518.19,218.47l-21.17-0.11
		c-0.82,0-1.51,0.16-1.77,1l-0.2,50.64c-0.02,5.85-2.66,11.3-6.72,15.05c-7.4,6.83-21.01,6.17-25.98-3.08
		c-1.41-2.62-1.85-5.39-2.15-8.45l-0.07-55.07l-22.9-0.01l-0.04,62.19c0.23,14.75,9.09,27.19,24.03,27.89
		c6.31,0.29,12.46-1.21,17.78-4.6l14.22-9.06c0.54-0.34,1.26-0.27,1.61,0.05c0.21,0.19,0.39,0.62,0.39,1.14l0,8.78
		c0,0.99,0.84,1.7,1.84,1.7l19.66-0.05c1.05,0,1.54-0.55,1.54-2.02L518.19,218.47z M533.96,183.03l0.02,123.53l23.12,0l-0.02-123.53
		L533.96,183.03z M659.96,339.8l-0.01-119.93c0-0.99-0.9-1.51-1.69-1.5L637,218.53l-0.13,12.19c-0.01,0.81-0.25,1.5-0.85,1.71
		c-0.7,0.25-1.21-0.09-1.81-0.55l-13.62-10.49c-12.69-9.77-29.39-4.36-39.55,7.69c-8.04,9.55-11.74,21.56-11.64,34.06
		c0.08,9.84,2.02,19.22,7.23,27.52c7.53,12,20.81,19.02,35.01,17.49c9.11-0.98,16.9-5.89,22.84-12.56c0.49-0.55,1.46-0.44,1.82-0.18
		c0.38,0.27,0.56,0.84,0.56,1.55l0,43.3c0,0.9,0.83,1.42,1.64,1.42l19.76-0.01C659.3,341.67,659.96,340.99,659.96,339.8z
		 M599.45,279.73c-7.06-8.21-7.85-20.69-3.43-30.46c3.95-8.74,12.95-14.04,22.53-12.61c5.02,0.75,9.38,3.5,12.61,7.63
		c8.03,10.27,7.52,25.6-0.85,35.57c-3.12,3.71-7.01,6.4-11.67,7.28C611.23,288.54,604.26,285.33,599.45,279.73z M699.42,189.57
		c-0.74-3.77-2.98-6.98-6.42-8.94c-5.93-3.39-13.76-2.41-18.48,2.67c-4.05,4.36-4.68,10.8-2.07,16.11
		c2.39,4.87,7.58,8.05,13.51,7.94c6.78-0.12,12.31-4.73,13.54-11.38c0.08-0.43,0.27-0.68,0.51-0.81v-4.39
		C699.62,190.55,699.54,190.17,699.42,189.57z M673.94,218.39v88.16h23.01v-88.16H673.94z"/>
	<path style="fill:#FF7800;" d="M192.46,158.56c21.06,1.95,40.64,11.15,55.25,26.71c17.67,18.83,26.05,44.73,22.06,70.36
		c-2.25,14.49-8.21,27.93-16.5,39.59c-0.67-0.08-1.11-0.31-1.58-0.78l-14.44-14.8c0.09-0.92,0.53-1.32,0.96-1.99
		c15.23-23.4,12.98-53.96-5.05-74.91c-18.03-20.95-47.74-27.9-73.36-16.52c-19.34,8.59-33.15,26.14-36.58,47.14
		c-0.18,1.11-0.34,1.9,0,2.98c-15.01,15.9-18.09,40.76-5.12,59.2c-10.85-13.23-16.93-29.36-18.12-46.48l0-10.83
		c1.31-20.14,9.58-38.99,23.57-53.56c14.46-15.06,33.53-23.93,54.02-26.34L192.46,158.56z"/>
	<path style="fill:#FDB671;" d="M193.62,236.25c-0.93,1.35-2.23,2.1-3.33,3.17l-5.83,5.6c-2.39,2.3-4.91,4.31-7.05,6.89
		c-7.37-7.4-18.07-10.47-28.23-6.58c-9.29,3.56-16.16,12.34-16.6,22.89c-0.27,6.48,1.94,12.86,6.3,17.67
		c21.09,23.28,56.43,27.13,82.01,9.45c6.08-4.2,11.77-9.45,15.9-15.76c-0.01-0.26,0.59-0.18,0.46,0.05l14.44,14.8
		c0.47,0.48,0.91,0.7,1.58,0.78c-0.16,0.22-0.26,0.43-0.34,0.71c-4.86,5.59-9.98,11.13-15.87,15.54
		c-14.39,10.76-31.44,16.93-49.88,17.29c-26.78,0.52-53.75-11.45-69.07-33.23c-12.97-18.43-9.89-43.3,5.12-59.2
		C142.43,216,174.08,216.63,193.62,236.25z"/>
	<path style="fill:#FF9A3F;" d="M252.93,295.93l25.72,25.26l-15.83,15.91l-25.75-25.63C242.95,307.06,248.07,301.52,252.93,295.93z"
		/>
	<path style="fill:#FF9A3F;" d="M236.79,279.59c-4.14,6.31-9.83,11.56-15.9,15.76l-43.47-43.44c2.14-2.59,4.66-4.59,7.05-6.89
		l5.83-5.6c1.11-1.06,2.4-1.82,3.33-3.17L236.79,279.59z"/>
</g>
</svg>
