<?xml version="1.0" encoding="iso-8859-1"?>
<!-- Generator: Adobe Illustrator 30.7.0, SVG Export Plug-In . SVG Version: 9.03 Build 0)  -->
<svg version="1.1" id="Capa_1" xmlns="http://www.w3.org/2000/svg" xmlns:xlink="http://www.w3.org/1999/xlink" x="0px" y="0px"
	 viewBox="0 0 800 500" style="enable-background:new 0 0 800 500;" xml:space="preserve">
<path style="fill-rule:evenodd;clip-rule:evenodd;fill:#00BF45;" d="M745,475H55c-16.57,0-30-13.43-30-30V55c0-16.57,13.43-30,30-30
	h690c16.57,0,30,13.43,30,30v390C775,461.57,761.57,475,745,475z"/>
<g>
	<path style="fill:#FFFFFF;" d="M390.74,224.93c-18.89,0-32.17,13.62-32.28,35.58c0,20.09,16.03,32.5,32.39,32.5
		c9.77,0,15.81-1.54,19.33-4.39v-11.09c-5.05,2.42-10.98,3.29-16.14,3.29c-10.1,0-18.23-5.49-19.55-14.28l-0.11-0.77h11.75
		c11.09,0,18.89-0.99,23.83-3.4c4.94-2.42,7.03-6.15,7.03-12.08C416.99,234.59,404.36,224.93,390.74,224.93 M398.43,253.81
		c-3.07,1.1-7.91,1.54-15.92,1.54h-8.24v-0.77l0.11-2.2c0.33-7.91,6.26-14.93,14.82-14.93c3.95,0,7.25,0.88,9.66,2.64
		c2.42,1.76,3.73,4.61,3.73,8.02C402.71,250.73,401.51,252.71,398.43,253.81 M425.11,250.29v41.62h15.48v-38.54
		c0-5.16,0.99-8.89,3.18-11.42c2.09-2.53,5.27-3.51,9.11-3.51c1.54,0,2.97,0.11,4.17,0.33v-12.3c-1.98-0.99-4.5-1.65-7.8-1.65
		C431.92,224.93,425.11,237.22,425.11,250.29 M237.23,291.91v-83.78h-15.37v83.78H237.23L237.23,291.91z M278.85,224.93
		c-20.64,0-29.54,14.06-29.65,27.89v39.09h15.37v-37.99c0-4.83,1.32-8.78,3.51-11.53c2.31-2.75,5.6-4.17,9.33-4.17
		c4.39,0,8.02,1.32,10.54,4.06c2.42,2.86,3.73,7.14,3.73,12.85v36.79h15.37V253.7C307.07,235.14,294.33,224.93,278.85,224.93
		 M334.19,208.13h-15.26v60.5c0.11,15.37,7.8,24.38,24.49,24.49c7.14,0,11.31-2.31,13.07-6.04v-9.55
		c-2.74,1.21-6.48,1.76-11.09,1.76c-3.51,0-6.37-0.88-8.35-2.97c-1.98-2.09-2.96-5.27-2.96-9.77v-28.33h13.4
		c6.59,0,9.33-4.17,9.33-7.25v-6.15h-22.62V208.13L334.19,208.13z M625.73,224.93c-20.64,0-29.54,14.06-29.65,27.89l0.11,39.09
		h15.26v-37.99c0-4.94,1.32-8.78,3.51-11.53c2.31-2.75,5.6-4.17,9.33-4.17c4.39,0,8.02,1.32,10.54,4.17
		c2.53,2.86,3.73,7.03,3.73,12.74v36.79h15.26V253.7C653.95,235.14,641.33,224.93,625.73,224.93 M497.81,224.93
		c-8.67,0-14.06,5.16-17.24,9.88l-1.21,1.76v-28.44H464.1v51.94c0,22.07,13.29,33.05,30.53,33.05c19.66,0,32.06-15.48,32.06-35.25
		C526.69,238.43,514.17,224.93,497.81,224.93 M496.38,280.05L496.38,280.05c-5.05,0-9.55-1.43-12.52-5.16
		c-2.96-3.62-4.39-9.44-4.39-17.24c0-10.65,6.48-19.33,15.26-19.44c5.16,0,9.33,1.43,12.19,5.05c2.85,3.62,4.28,9.11,4.28,17.35
		C511.09,271.7,505.05,280.05,496.38,280.05 M558.2,224.93c-9.33,0-15.48,2.53-19.77,5.82v10.76c4.39-2.09,9.77-3.73,17.24-3.73
		c5.05,0,9.44,0.77,11.97,2.75c2.64,2.09,3.73,5.38,3.73,10.21v1.54h-6.59c-24.6,0.11-32.72,8.78-32.72,20.31
		c0,11.86,10.54,20.53,26.24,20.53h3.4c14.6,0,24.71-9.44,24.71-23.28v-15.37C586.53,231.08,573.03,225.04,558.2,224.93
		 M571.6,269.95c0,3.51-0.88,6.26-2.85,8.24c-1.98,1.87-4.83,2.75-8.57,2.75l0,0c-3.73,0-6.81-0.77-9-2.31
		c-2.2-1.54-3.29-3.84-3.29-6.7c0-2.86,0.99-5.38,3.73-6.92c2.64-1.54,6.92-2.2,13.29-2.2h6.7V269.95z"/>
	<path style="fill:#FFFFFF;" d="M697.77,257.21l-0.33-0.44l0.33-0.44c6.7-8.46,21.3-24.93,26.68-29.87H716
		c-5.38,0-9,0.55-12.85,4.17c-7.69,7.25-14.06,15.81-20.53,24.16l-1.21,1.65l0.11-48.32h-15.48v83.67h15.48v-33.93l1.21,1.65
		c7.36,9.77,14.82,19.66,23.39,28.44c2.75,2.63,6.92,4.39,10.54,4.39c4.28,0,6.7-1.1,8.35-3.07
		C720.61,284.11,703.04,263.58,697.77,257.21"/>
	<path style="fill-rule:evenodd;clip-rule:evenodd;fill:#002EA4;" d="M90.01,193.59c-8.29,0-15.01,6.72-15.01,15.01v97.8h97.8
		c8.28,0,15.11-6.73,15.11-15.11v-97.7H90.01z M161.52,275.05l-60.13,10.87v-60.65l60.13-10.87V275.05z"/>
</g>
</svg>
