<?xml version="1.0" encoding="iso-8859-1"?>
<!-- Generator: Adobe Illustrator 30.7.0, SVG Export Plug-In . SVG Version: 9.03 Build 0)  -->
<svg version="1.1" id="Capa_1" xmlns="http://www.w3.org/2000/svg" xmlns:xlink="http://www.w3.org/1999/xlink" x="0px" y="0px"
	 viewBox="0 0 800 500" style="enable-background:new 0 0 800 500;" xml:space="preserve">
<path style="fill-rule:evenodd;clip-rule:evenodd;fill:#E64442;" d="M745,475H55c-16.57,0-30-13.43-30-30V55c0-16.57,13.43-30,30-30
	h690c16.57,0,30,13.43,30,30v390C775,461.57,761.57,475,745,475z"/>
<g>
	<polygon style="fill:#FFFFFF;" points="132.96,200.13 104.08,200.13 104.08,308.21 132.96,308.21 132.96,200.13 	"/>
	<path style="fill:#FFFFFF;" d="M131.22,151.51c-1.77-1.81-3.52-3.01-5.89-4.19c-2.37-1.21-4.7-1.21-7.07-1.21s-4.71,0.6-7.07,1.21
		c-2.37,1.21-4.11,2.41-5.89,4.19c-1.77,1.81-2.96,3.59-4.11,6c-1.18,2.41-1.18,4.79-1.18,7.2c0,2.41,0.59,4.79,1.18,7.2
		c1.18,2.41,2.37,4.19,4.11,6c1.77,1.81,3.52,3.01,5.89,4.19c2.37,1.21,4.71,1.21,7.07,1.21s4.7-0.6,7.07-1.21
		c2.37-1.21,4.11-2.41,5.89-4.19c1.78-1.81,2.96-3.59,4.11-6c1.15-2.41,1.18-4.79,1.18-7.2c0-2.41-0.59-4.79-1.18-7.2
		C134.15,155.1,132.37,153.32,131.22,151.51L131.22,151.51z"/>
	<path style="fill:#FFFFFF;" d="M301.54,151.51c-1.77-1.81-3.52-3.01-5.89-4.19c-2.37-1.21-4.7-1.21-7.07-1.21
		c-2.37,0-4.71,0.6-7.07,1.21c-2.37,1.21-4.11,2.41-5.89,4.19c-1.77,1.81-2.96,3.59-4.11,6c-1.18,2.41-1.18,4.79-1.18,7.2
		c0,2.41,0.59,4.79,1.18,7.2c1.18,2.41,2.37,4.19,4.11,6c1.78,1.81,3.55,3.01,5.89,4.19c2.34,1.18,4.7,1.21,7.07,1.21
		c2.37,0,4.7-0.6,7.07-1.21c2.37-1.21,4.11-2.41,5.89-4.19c1.78-1.81,2.96-3.59,4.11-6c1.15-2.41,1.18-4.79,1.18-7.2
		c0-2.41-0.59-4.79-1.18-7.2C304.47,155.1,303.29,153.32,301.54,151.51L301.54,151.51z"/>
	<polygon style="fill:#FFFFFF;" points="303.31,200.13 274.43,200.13 274.43,308.21 303.31,308.21 303.31,200.13 	"/>
	<path style="fill:#80D2CE;" d="M424.16,213.94c-4.7-4.79-10.03-9.01-16.51-12c-6.48-3.01-12.96-4.19-20.63-4.19
		c-7.07,0-13.55,1.21-18.85,4.19c-5.3,3.01-9.44,6.6-12.96,10.82v-12h-27.7v153.12h28.29v-55.83c3.52,4.19,7.66,7.81,12.96,10.22
		c5.3,2.41,11.18,3.62,18.26,3.62s14.14-1.21,20.63-4.19c6.48-3.01,11.78-6.6,16.51-12c4.71-4.79,8.26-10.82,10.62-18.03
		c2.37-7.2,4.11-14.41,4.11-22.82c0-8.41-1.18-15.62-4.11-22.82c-2.37-7.2-5.89-13.21-10.62-18.03V213.94L424.16,213.94z
		 M407.65,266.19c-1.18,3.62-2.96,6.6-5.3,9.62c-2.37,2.41-5.3,4.79-8.85,6.6c-3.55,1.81-7.07,2.41-11.18,2.41
		c-4.11,0-7.66-0.6-11.18-2.41c-3.55-1.21-6.48-3.59-8.85-6c-2.37-2.41-4.11-6-5.3-9.62c-1.18-3.59-1.78-7.81-1.78-12
		c0-4.19,0.59-8.41,1.78-12c1.18-3.62,2.96-6.6,5.3-9.62c2.37-2.41,5.3-4.79,8.85-6c3.52-1.2,7.07-2.41,11.18-2.41
		c4.11,0,8.26,0.6,11.18,2.41c3.52,1.81,6.48,3.59,8.85,6.6c2.37,2.41,4.11,6,5.3,9.62c1.18,3.59,1.77,7.81,1.77,11.4
		C409.42,258.38,408.83,262.6,407.65,266.19L407.65,266.19z"/>
	<path style="fill:#80D2CE;" d="M537.91,212.16c-3.52-4.19-7.66-7.81-12.96-10.82c-5.3-3.01-11.19-4.19-18.85-4.19
		c-7.07,0-14.14,1.21-20.62,4.19c-6.48,3.01-11.78,6.6-16.51,12c-4.7,4.79-8.25,10.82-10.62,18.03c-2.37,7.2-4.11,14.41-4.11,22.82
		c0,8.41,1.18,15.62,4.11,22.82c2.37,7.2,6.48,13.2,10.62,18.03c4.71,4.79,10.03,9.01,16.51,12c6.48,3.01,12.96,4.19,20.62,4.19
		c7.07,0,13.55-1.21,18.85-4.19c5.29-3.01,9.44-6,12.96-10.82v12h27.7V200.13h-27.7v12V212.16L537.91,212.16z M536.72,266.22
		c-1.18,3.62-2.96,6.6-5.3,9.62c-2.37,2.41-5.29,4.79-8.85,6c-3.52,1.21-7.07,2.41-11.19,2.41c-4.11,0-7.66-0.6-11.18-2.41
		c-3.52-1.81-6.48-3.59-8.85-6.6c-2.37-2.41-4.11-6-5.3-9.62c-1.18-3.59-1.77-7.81-1.77-11.4c0-4.19,0.59-7.81,1.77-11.39
		c1.18-3.62,2.96-6.6,5.3-9.62c2.37-2.41,5.3-4.79,8.85-6.6c3.55-1.81,7.07-2.41,11.18-2.41c4.11,0,7.66,0.6,11.19,2.41
		c3.55,1.21,6.48,3.59,8.85,6c2.37,2.41,4.11,6,5.3,9.62c1.18,3.59,1.78,7.81,1.78,12C538.5,258.41,537.91,262.63,536.72,266.22
		L536.72,266.22z"/>
	<polygon style="fill:#80D2CE;" points="640.47,256 610.99,200.13 578.56,200.13 624.54,285.42 587.41,353.89 618.66,353.89 
		700,200.13 668.75,200.13 640.47,256 	"/>
	<polygon style="fill:#FFFFFF;" points="189.57,284.22 200.76,273.39 188.39,252.38 155.36,284.22 161.28,308.25 251.44,308.85 
		245.55,284.22 189.57,284.22 	"/>
	<polygon style="fill:#FFFFFF;" points="157.73,200.74 164.21,224.77 217.27,225.37 206.05,235.59 217.86,257.21 251.44,225.37 
		245.56,200.74 157.73,200.74 	"/>
</g>
</svg>
