<?xml version="1.0" encoding="utf-8"?>
<!-- Generator: Adobe Illustrator 30.7.0, SVG Export Plug-In . SVG Version: 9.03 Build 0)  -->
<svg version="1.1" baseProfile="tiny" id="Capa_1" xmlns="http://www.w3.org/2000/svg" xmlns:xlink="http://www.w3.org/1999/xlink"
	 x="0px" y="0px" viewBox="0 0 800 500" overflow="visible" xml:space="preserve">
<path fill-rule="evenodd" fill="#8317D9" d="M745,475H55c-16.57,0-30-13.43-30-30V55c0-16.57,13.43-30,30-30h690
	c16.57,0,30,13.43,30,30v390C775,461.57,761.57,475,745,475z"/>
<path fill="#FFFFFF" d="M313.54,363.99l-0.23-4.69l0.29-5.91c0.5-10.01,3.91-19.34,9.07-27.78l4.06-5.95
	c9.72-14.25,29.22-20.36,37.68-33.7c1.45-2.28,1.06-4.77-0.5-6.83c-2.38-3.15-4.99-6.07-8.21-8.44l-11.68-8.56
	c-17.69-11.26-29.34-30.2-30.51-51.3l0.03-8c0.56-12.72,5.27-24.7,12.74-34.82l5.71-6.68c17.49-17.96,43.5-24.52,67.56-17.49
	c4.17,1.16,7.83,2.64,11.7,4.81l13.3-16.55l24.48,18.19l-14.39,17.96c7.18,10.19,11.88,21.96,12.46,34.6
	c0.24,2.56,0.36,4.79,0.07,7.21l-1.13,9.68c-3.38,16.21-12.66,30.57-26.23,40.17c-5.89,4.17-11.83,7.78-17.13,12.59l-6.07,6.65
	c-2.08,2.27-1.85,5.32,0.04,7.88c1.99,2.71,4.36,5.4,7.07,7.51l7.6,5.92l9.38,6.5l6.1,5.16c25.42,24.1,27.17,63.53,4.34,89.78
	c-23.46,26.97-64.09,30.93-92.59,8.84l-7.75-7.19C320.78,392.8,314.27,378.95,313.54,363.99z M414.48,206.79
	c0-18.93-15.34-34.27-34.27-34.27s-34.27,15.34-34.27,34.27s15.34,34.27,34.27,34.27S414.48,225.72,414.48,206.79z M414.42,359.24
	c0-18.93-15.34-34.27-34.27-34.27c-18.93,0-34.27,15.34-34.27,34.27c0,18.93,15.34,34.27,34.27,34.27
	C399.08,393.5,414.42,378.16,414.42,359.24z M593.72,206.97c0,36.66-29.72,66.38-66.38,66.38c-36.66,0-66.38-29.72-66.38-66.38
	s29.72-66.38,66.38-66.38C563.99,140.59,593.72,170.31,593.72,206.97z M561.66,206.88c0-18.93-15.34-34.27-34.27-34.27
	c-18.93,0-34.27,15.34-34.27,34.27s15.34,34.27,34.27,34.27C546.31,241.15,561.66,225.81,561.66,206.88z M236.5,225.44L236.44,89.4
	c0-8.82-8.31-15.05-16.28-14.34c-8.46,0.76-14.58,8.05-13.81,16.71l0,177.77l30.09-0.03L236.5,225.44z M293.84,269.51l-0.06-19.88
	l-0.05-93.97c0-4.09-1.7-7.6-4.48-10.25c-3.69-3.54-7.84-4.7-13.18-4.16c-6.97,0.7-13.33,6.87-13.36,14.35l-0.16,110.72l0.35,3.22
	L293.84,269.51z M278.35,93.62c-9.51,0-17.23,7.71-17.23,17.23s7.71,17.23,17.23,17.23s17.23-7.71,17.23-17.23
	S287.87,93.62,278.35,93.62z"/>
</svg>
