<?xml version="1.0" encoding="iso-8859-1"?>
<!-- Generator: Adobe Illustrator 30.7.0, SVG Export Plug-In . SVG Version: 9.03 Build 0)  -->
<svg version="1.1" id="Capa_1" xmlns="http://www.w3.org/2000/svg" xmlns:xlink="http://www.w3.org/1999/xlink" x="0px" y="0px"
	 viewBox="0 0 800 500" style="enable-background:new 0 0 800 500;" xml:space="preserve">
<path style="fill-rule:evenodd;clip-rule:evenodd;fill:#0F1B4C;" d="M745,475H55c-16.57,0-30-13.43-30-30V55c0-16.57,13.43-30,30-30
	h690c16.57,0,30,13.43,30,30v390C775,461.57,761.57,475,745,475z"/>
<g>
	<path style="fill:#FFFFFF;" d="M437.5,207.98c28.11,2.51,50.27,24.02,52.91,52.29c2.07,22.19-9.44,43.99-29.11,54.93
		c-18.11,10.07-39.66,9.94-57.87-0.99c-15.98-9.59-27.38-27.76-27.4-47.89l-0.06-77.4c0-6.36,5.16-11.52,11.53-11.5h0
		c6.32,0.02,11.44,5.14,11.46,11.46l0.08,29.99c10.01-6.26,19.61-10.12,30.87-10.88L437.5,207.98z M467.39,265.27
		c0-18.85-15.28-34.13-34.13-34.13c-18.85,0-34.13,15.28-34.13,34.13c0,18.85,15.28,34.13,34.13,34.13
		C452.1,299.4,467.39,284.12,467.39,265.27z M566.1,320.19l72.22,0c6.39,0,11.57-5.19,11.56-11.58l0,0
		c-0.01-6.37-5.17-11.53-11.54-11.54l-59.43-0.11l64.62-56.21c4.03-3.5,6.34-8.58,6.34-13.91v-0.04c0-10.18-8.26-18.43-18.44-18.43
		l-72.2,0.02c-6.4,0-11.58,5.2-11.56,11.6l0,0.5c0.02,6.36,5.17,11.5,11.53,11.52l58.85,0.16L554,287.85
		c-4.05,3.52-6.37,8.64-6.34,14.01v0C547.72,312,555.95,320.19,566.1,320.19z M337.04,218.79l0.11,50.98
		c0.04,16.42-12.32,29.87-28.34,29.61c-16.57-0.27-27.74-13.67-27.68-30.33l0.18-50.3c0.02-6.42-5.18-11.62-11.6-11.6l0,0
		c-6.41,0.02-11.58,5.26-11.52,11.68l0.58,58.38c1.91,27.59,27.37,47.05,53.81,45.2c26.83-1.88,47.69-23.93,47.69-51.32l0.01-52.31
		c0-6.39-5.18-11.57-11.57-11.56l-0.12,0C342.2,207.21,337.03,212.4,337.04,218.79z M179.24,309.84c0.04,6.31,5.17,11.4,11.48,11.38
		l0.06,0c6.35-0.01,11.48-5.19,11.44-11.54l-0.37-56.71c-1.38-28.49-27.13-48.92-54.17-46.9c-28.51,2.13-47.82,25.78-47.69,54.31
		l0.23,49.42c0.03,6.3,5.13,11.39,11.43,11.41h0c6.32,0.02,11.46-5.08,11.49-11.4l0.28-53.86c0.08-14.99,12.73-26.56,27.07-26.88
		c14.07-0.31,28.27,10.31,28.38,25.66L179.24,309.84z M505.87,218.9l-0.01,90.61c0,6.48,5.25,11.74,11.74,11.74l0,0
		c6.48,0,11.74-5.25,11.74-11.74l0.01-90.61c0-6.48-5.25-11.74-11.74-11.74h0C511.12,207.16,505.87,212.42,505.87,218.9z
		 M230.56,207.04L230.56,207.04c-6.36,0-11.51,5.15-11.51,11.51l0,91.2c0,6.36,5.15,11.51,11.51,11.51h0
		c6.36,0,11.51-5.15,11.51-11.51l0-91.2C242.07,212.19,236.92,207.04,230.56,207.04z"/>
	<circle style="fill:#BBFF7B;" cx="686.51" cy="245.45" r="13.49"/>
	<circle style="fill:#BBFF7B;" cx="686.51" cy="305.11" r="13.49"/>
</g>
</svg>
