<?xml version="1.0" encoding="iso-8859-1"?>
<!-- Generator: Adobe Illustrator 30.7.0, SVG Export Plug-In . SVG Version: 9.03 Build 0)  -->
<svg version="1.1" id="Capa_1" xmlns="http://www.w3.org/2000/svg" xmlns:xlink="http://www.w3.org/1999/xlink" x="0px" y="0px"
	 viewBox="0 0 800 500" style="enable-background:new 0 0 800 500;" xml:space="preserve">
<path style="fill-rule:evenodd;clip-rule:evenodd;fill:#FF0A19;" d="M745,475H55c-16.57,0-30-13.43-30-30V55c0-16.57,13.43-30,30-30
	h690c16.57,0,30,13.43,30,30v390C775,461.57,761.57,475,745,475z"/>
<g>
	<path style="fill-rule:evenodd;clip-rule:evenodd;fill:#FFFFFF;" d="M333.77,285.44c-15.93,0-27.34-9.46-27.34-24.25
		c0-14.61,11.82-24.34,27.34-24.34c15.52,0,27.33,9.66,27.33,24.34C361.1,275.98,349.6,285.44,333.77,285.44L333.77,285.44z
		 M606.14,237.98v46.48h-15.89l-0.24-4.69h-0.34c-1.76,1.57-5.43,5.71-15.68,5.71c-11.36,0-21.32-9.76-21.32-24.31
		c0-13.5,8.83-24.28,22.37-24.28c9.21,0,12.97,4.01,14.38,5.29h0.42l0.16-4.21H606.14L606.14,237.98z M483.48,238v46.48h-15.9
		l-0.24-4.69H467c-1.76,1.57-5.43,5.71-15.68,5.71c-11.36,0-21.32-9.76-21.32-24.3c0-13.5,8.83-24.28,22.37-24.28
		c9.21,0,12.97,4.01,14.38,5.29h0.42l0.16-4.21H483.48L483.48,238z M406.28,238.04h16.4v46.51h-16.4V238.04L406.28,238.04z
		 M494.03,284.45V218.9h16.33v22.46h0.18c1.15-0.71,6.44-4.46,14.2-4.46c12.72,0,22.06,10.1,22.06,23.47
		c0,16.7-10.36,25.11-22.16,25.11c-8.93,0-13.46-4.1-14.58-5.3h-0.26l-0.24,4.26H494.03L494.03,284.45z M333.77,273.81
		c6.64,0,10.55-5.76,10.55-12.62c0-6.95-3.72-12.71-10.55-12.71c-7.14,0-10.56,5.76-10.56,12.71
		C323.21,268.05,327.13,273.81,333.77,273.81L333.77,273.81z M398.34,271.82c-0.8,0.22-3.01,0.78-4.52,0.78
		c-3.32,0-6.94-1.53-6.94-7.21v-15.71h10.29v-11.69h-10.29v-14.97h-16.36v14.97h-7.16v11.69h7.16v18.38
		c0,10.11,4.75,17.36,16.85,17.36c3.51,0,6.74-0.47,8.96-0.88L398.34,271.82L398.34,271.82z M212.29,282.76
		c4.57,1.37,11.53,2.63,18.9,2.63c13.96,0,27.9-4.89,27.9-20.04c0-20.79-29.01-17.91-29.01-26.2c0-4.24,4.46-5.16,8.83-5.16
		c6.06,0,13.73,2.87,15.43,3.56l1.32-14.32c-4.23-1.42-10.66-2.23-16.7-2.23c-13.78,0-27.39,5.32-27.39,18.81
		c0,20.43,28.93,16.16,28.93,26.89c0,4.12-4.17,5.69-9.48,5.69c-7.3,0-14.17-3.61-17.14-4.92L212.29,282.76L212.29,282.76z
		 M569.99,260.75c0,7.69,4.34,12.49,9.96,12.49c5.09,0,10.05-4.71,10.05-11.85c0-7.2-4.4-12.13-10.05-12.13
		C574.1,249.25,569.99,254.42,569.99,260.75L569.99,260.75z M447.33,260.77c0,7.68,4.34,12.49,9.96,12.49
		c5.09,0,10.05-4.71,10.05-11.85c0-7.2-4.4-12.13-10.05-12.13C451.44,249.28,447.33,254.44,447.33,260.77L447.33,260.77z
		 M302.26,238.72c-1.22-0.34-5.71-1.86-11.67-1.86c-14.74,0-25.79,9.12-25.79,24.3c0,13.8,9.92,24.3,25.13,24.3
		c6.48,0,11.24-1.71,12.33-2.03l-0.8-13.55c-1.26,0.56-4.53,2.41-8.28,2.41c-6.6,0-11.42-4.62-11.42-11.13
		c0-6.83,5.16-11.22,11.61-11.22c3.64,0,6.88,1.67,8.09,2.27L302.26,238.72L302.26,238.72z M675.86,284.49h16.32v-21.51h0.18
		l14.49,21.51H725l-17.49-24.64l17.05-21.78h-18.14l-14.07,19.16h-0.18v-38.27h-16.32V284.49L675.86,284.49z M616.73,284.49h15.92
		v-24.01c0-5.63,3.77-9.48,8.6-9.48c5.51,0,8.64,3.54,8.64,9.48v24.01h15.92V256.5c0-10.53-6.86-19.55-19.46-19.55
		c-8.41,0-12.79,4.52-14.78,6.3h-0.33l-0.16-5.15h-14.34V284.49L616.73,284.49z M414.48,214.49c-5.05,0-9.2,4.1-9.2,9.08
		c0,4.98,4.14,9.08,9.2,9.08c5.04,0,9.18-4.1,9.18-9.08C423.67,218.59,419.52,214.49,414.48,214.49L414.48,214.49z M529.87,261.2
		c0-6.22-3.59-11.74-9.83-11.74c-5.5,0-9.92,4.64-9.92,11.74c0,6.88,3.63,11.77,9.92,11.77
		C525.72,272.98,529.87,268.31,529.87,261.2L529.87,261.2z"/>
	<path style="fill:#FFFFFF;" d="M160.04,250c0,16.67-13.52,30.19-30.19,30.19S99.66,266.67,99.66,250s13.52-30.19,30.19-30.19
		S160.04,233.33,160.04,250z M124.05,189.32c-20.6,0.29-37.21,17.09-37.21,37.76c0,6.76,1.78,13.11,4.89,18.6
		c2.14-19.16,18.39-34.05,38.12-34.05h34.48l20.37-22.32C184.7,189.31,124.23,189.31,124.05,189.32z M135.66,310.68
		c20.6-0.29,37.21-17.09,37.21-37.76c0-6.76-1.78-13.11-4.89-18.6c-2.14,19.16-18.39,34.05-38.12,34.05H95.37L75,310.69
		C75,310.69,135.47,310.69,135.66,310.68z"/>
</g>
</svg>
