<?xml version="1.0" encoding="utf-8"?>
<!-- Generator: Adobe Illustrator 30.7.0, SVG Export Plug-In . SVG Version: 9.03 Build 0)  -->
<svg version="1.1" baseProfile="tiny" id="Capa_1" xmlns="http://www.w3.org/2000/svg" xmlns:xlink="http://www.w3.org/1999/xlink"
	 x="0px" y="0px" viewBox="0 0 800 500" overflow="visible" xml:space="preserve">
<g>
	<path fill-rule="evenodd" fill="#00B1FF" d="M745,475H55c-16.57,0-30-13.43-30-30V55c0-16.57,13.43-30,30-30h690
		c16.57,0,30,13.43,30,30v390C775,461.57,761.57,475,745,475z"/>
	<g>
		<path fill="#FFFFFF" d="M286.17,208.9c-8.36-4.48-19.96-7.5-29.2-7.5c-6.23,0-16.96,2.67-16.96,10.52
			c0,10.52,16.96,12.03,24.41,13.48c25.33,5.11,44.37,17.08,44.37,45.61c0,40.5-36.64,57.29-72.07,57.29
			c-21.75,0-43.22-6.28-61.68-17.72l19.68-38.12c11.02,7.79,29.48,15.57,42.87,15.57c6.86,0,16.97-3.31,16.97-11.68
			c0-11.97-16.97-12.61-33.99-17.08c-17.02-4.47-33.98-12.9-33.98-40.5c0-37.77,33.98-54.62,67.33-54.62
			c17.25,0,34.56,2.67,50.37,9.88l-18.18,34.8L286.17,208.9L286.17,208.9z"/>
		<polygon fill="#FFFFFF" points="376.69,323.18 322.46,323.18 322.46,169.32 376.69,169.32 376.69,323.18 		"/>
		<path fill="#FFFFFF" d="M494.46,164.21c-17.89,0-36.35,7.21-46.16,22.49h-0.58v-17.37h-54.24V400h54.24v-91.52
			c11.6,13.48,29.77,19.81,47.37,19.81c45.29,0,76.57-37.19,76.57-81.58c0-44.39-31.56-82.51-77.14-82.51H494.46L494.46,164.21z
			 M480.73,280.88c-18.98,0-34.39-15.51-34.39-34.63c0-19.12,15.41-34.63,34.39-34.63c18.98,0,34.39,15.51,34.39,34.63
			C515.12,265.37,499.71,280.88,480.73,280.88L480.73,280.88z"/>
		<path d="M590.58,169.26c18.99,0,34.39-15.5,34.39-34.63c0-19.13-15.4-34.63-34.39-34.63c-18.99,0-34.39,15.51-34.39,34.63
			C556.19,153.76,571.58,169.26,590.58,169.26L590.58,169.26z"/>
	</g>
</g>
</svg>
