<?xml version="1.0" encoding="utf-8"?>
<!-- Generator: Adobe Illustrator 30.7.0, SVG Export Plug-In . SVG Version: 9.03 Build 0)  -->
<svg version="1.1" baseProfile="tiny" id="Capa_1" xmlns="http://www.w3.org/2000/svg" xmlns:xlink="http://www.w3.org/1999/xlink"
	 x="0px" y="0px" viewBox="0 0 150 150" overflow="visible" xml:space="preserve">
<g>
	<path fill="#0C1327" d="M96.57,123.62c-1.16,0-2.29-0.36-3.25-1.08l-18.6-13.84l-45.63-0.06c-7.75-0.02-14.06-6.51-14.06-14.47
		L15,50.36c0-3.78,1.47-7.53,4.05-10.28c2.69-2.87,6.29-4.46,10.14-4.46l91.54-0.01c3.71,0,7.23,1.47,9.89,4.14
		c2.78,2.79,4.37,6.65,4.37,10.6l-0.07,44.19c-0.01,7.8-6.58,14.15-14.64,14.15l-18.04,0l-0.05,9.55c-0.01,2.24-1.56,4.03-2.99,4.73
		C98.35,123.41,97.45,123.62,96.57,123.62z"/>
	<path fill="#FFFFFF" d="M120.74,38.45l-91.54,0.01c-3.06,0-5.93,1.26-8.07,3.56c-2.09,2.23-3.28,5.27-3.28,8.34l0.03,43.81
		c0,6.29,5.15,11.62,11.23,11.63l46.57,0.06l19.35,14.4c0.83,0.61,1.93,0.68,2.95,0.18c0.69-0.34,1.4-1.25,1.41-2.2l0.06-12.37
		l20.87,0c6.5,0,11.79-5.08,11.8-11.32l0.07-44.19c0-3.21-1.29-6.34-3.54-8.59C126.49,39.63,123.69,38.45,120.74,38.45z"/>
	<path fill="#0C1327" d="M106.73,87.57c-2.16,0-3.99-0.53-5.49-1.6c-1.5-1.06-2.56-2.57-3.17-4.53c-0.61-1.96-0.71-4.26-0.31-6.92
		c0.63-3.82,2.04-6.7,4.25-8.66c2.21-1.96,4.84-2.93,7.91-2.93c1.97,0,3.65,0.48,5.02,1.43c1.38,0.95,2.21,2.25,2.49,3.87
		l-0.47,0.14l1.31-4.98h5.63c-0.25,0.97-0.49,1.96-0.73,2.96c-0.23,1-0.43,1.99-0.59,2.96l-2.82,17.79h-5.82l0.8-5.02h0.75
		c-0.78,1.69-1.92,3.03-3.4,4.01C110.62,87.08,108.83,87.57,106.73,87.57z M108.65,83.06c1.81,0,3.37-0.63,4.67-1.9
		c1.3-1.27,2.15-3.17,2.56-5.7c0.44-2.75,0.18-4.78-0.77-6.08c-0.95-1.3-2.39-1.95-4.3-1.95c-1.82,0-3.36,0.63-4.65,1.9
		c-1.28,1.27-2.13,3.15-2.53,5.66c-0.44,2.75-0.19,4.79,0.75,6.1C105.32,82.41,106.74,83.06,108.65,83.06z"/>
	<polygon fill="#24DA8D" points="109.71,52.55 102.29,52.55 79.5,73.49 79.41,73.49 81.02,63.4 75.15,63.4 71.38,87.1 77.25,87.1 
		78.94,76.49 79.03,76.49 87.86,87.1 94.9,87.1 85.14,74.94 	"/>
	<path fill="#24DA8D" d="M36.04,87.53c-2.36,0-4.33-0.49-5.92-1.47c-1.59-0.98-2.72-2.36-3.39-4.13c-0.67-1.77-0.82-3.85-0.45-6.24
		c0.57-3.46,1.95-6.08,4.15-7.86c2.2-1.77,4.92-2.66,8.15-2.66c1.33,0,2.63,0.2,3.9,0.6c1.26,0.4,2.28,0.98,3.04,1.75l-1.75,3.62
		c-0.68-0.62-1.48-1.09-2.38-1.38c-0.91-0.3-1.79-0.45-2.64-0.45c-1.82,0-3.36,0.56-4.62,1.68c-1.26,1.12-2.08,2.82-2.45,5.09
		c-0.37,2.24-0.09,4.02,0.83,5.32c0.92,1.31,2.38,1.96,4.36,1.96c0.85,0,1.77-0.16,2.75-0.49c0.98-0.33,1.89-0.84,2.75-1.55
		l1.53,3.66c-0.88,0.77-2.04,1.38-3.47,1.85C39.01,87.29,37.54,87.53,36.04,87.53z"/>
	<path fill="#24DA8D" d="M47.11,87.1l4.98-31.34h5.32L55.16,69.9h-0.64c0.85-1.56,1.99-2.74,3.43-3.53
		c1.43-0.79,3.04-1.19,4.83-1.19c2.61,0,4.44,0.76,5.49,2.28c1.05,1.52,1.33,3.8,0.85,6.83l-2,12.82H61.8l2-12.82
		c0.28-1.76,0.14-3.02-0.43-3.79c-0.57-0.77-1.53-1.15-2.9-1.15c-1.65,0-3.01,0.5-4.09,1.51c-1.08,1.01-1.75,2.35-2,4.02L52.43,87.1
		H47.11z"/>
</g>
</svg>
