<?xml version="1.0" encoding="utf-8"?>
<!-- Generator: Adobe Illustrator 30.7.0, SVG Export Plug-In . SVG Version: 9.03 Build 0)  -->
<svg version="1.1" baseProfile="tiny" id="Capa_1" xmlns="http://www.w3.org/2000/svg" xmlns:xlink="http://www.w3.org/1999/xlink"
	 x="0px" y="0px" viewBox="0 0 150 150" overflow="visible" xml:space="preserve">
<g>
	<g>
		<path fill="#FFFFFF" stroke="#0C1327" stroke-width="3" stroke-miterlimit="10" d="M75.2,111.65l-48.01-0.07
			c-7.36-0.02-13.17-6.33-13.17-13.59l-0.03-45.63c0-7.36,5.75-13.87,13.3-13.87l95.35-0.01c7.56,0,13.39,6.45,13.38,13.88
			l-0.07,46.02c-0.01,7.5-6.47,13.26-13.77,13.27l-20.26,0l-0.05,11.42c-0.01,1.61-1.13,3.04-2.29,3.61
			c-1.43,0.7-3.19,0.73-4.61-0.32L75.2,111.65z"/>
		<g>
			<path fill="#0C1327" d="M108.05,91.12c-2.25,0-4.16-0.55-5.72-1.66c-1.56-1.11-2.66-2.68-3.3-4.72
				c-0.64-2.04-0.74-4.44-0.32-7.21c0.65-3.98,2.13-6.98,4.42-9.02c2.3-2.04,5.04-3.06,8.24-3.06c2.05,0,3.8,0.5,5.23,1.49
				c1.43,0.99,2.3,2.34,2.59,4.03l-0.49,0.15l1.37-5.18h5.87c-0.26,1.01-0.51,2.04-0.76,3.08c-0.24,1.04-0.45,2.07-0.61,3.08
				l-2.93,18.53h-6.06l0.83-5.23h0.78c-0.81,1.76-2,3.15-3.54,4.18C112.1,90.61,110.23,91.12,108.05,91.12z M110.05,86.43
				c1.89,0,3.51-0.66,4.86-1.98c1.35-1.32,2.24-3.3,2.66-5.94c0.46-2.87,0.19-4.98-0.81-6.33c-0.99-1.35-2.49-2.03-4.47-2.03
				c-1.89,0-3.5,0.66-4.84,1.98c-1.34,1.32-2.22,3.28-2.64,5.89c-0.46,2.87-0.2,4.99,0.78,6.36
				C106.58,85.74,108.06,86.43,110.05,86.43z"/>
			<g>
				<polygon fill="#24DA8D" points="111.15,54.65 103.42,54.65 79.69,76.45 79.59,76.45 81.27,65.94 75.16,65.94 71.23,90.63 
					77.34,90.63 79.1,79.58 79.2,79.58 88.39,90.63 95.73,90.63 85.57,77.96 				"/>
				<path fill="#24DA8D" d="M34.42,91.07c-2.45,0-4.51-0.51-6.16-1.53c-1.66-1.02-2.83-2.45-3.53-4.3c-0.69-1.85-0.85-4.01-0.47-6.5
					c0.59-3.61,2.03-6.33,4.32-8.18c2.29-1.85,5.12-2.77,8.49-2.77c1.39,0,2.74,0.21,4.06,0.62c1.32,0.41,2.37,1.02,3.17,1.82
					L42.49,74c-0.71-0.65-1.54-1.13-2.48-1.44c-0.95-0.31-1.86-0.47-2.75-0.47c-1.89,0-3.5,0.58-4.81,1.75
					c-1.32,1.17-2.17,2.93-2.55,5.3c-0.38,2.34-0.1,4.18,0.86,5.54c0.96,1.36,2.48,2.04,4.55,2.04c0.89,0,1.84-0.17,2.86-0.51
					c1.02-0.34,1.97-0.88,2.86-1.62l1.6,3.81c-0.92,0.8-2.12,1.44-3.61,1.93C37.52,90.83,35.99,91.07,34.42,91.07z"/>
				<path fill="#24DA8D" d="M45.95,90.63l5.19-32.64h5.54l-2.35,14.72h-0.67c0.89-1.62,2.08-2.85,3.57-3.68
					c1.49-0.83,3.17-1.24,5.03-1.24c2.72,0,4.63,0.79,5.72,2.37c1.09,1.58,1.39,3.96,0.89,7.12l-2.08,13.35h-5.54l2.08-13.35
					c0.3-1.83,0.15-3.15-0.44-3.95c-0.59-0.8-1.6-1.2-3.02-1.2c-1.72,0-3.13,0.52-4.26,1.57c-1.12,1.05-1.82,2.45-2.08,4.19
					l-2.04,12.73H45.95z"/>
			</g>
		</g>
	</g>
</g>
</svg>
