<?xml version="1.0" encoding="iso-8859-1"?>
<!-- Generator: Adobe Illustrator 30.8.0, SVG Export Plug-In . SVG Version: 9.03 Build 0)  -->
<svg version="1.1" baseProfile="tiny" id="Capa_1" xmlns="http://www.w3.org/2000/svg" xmlns:xlink="http://www.w3.org/1999/xlink"
	 x="0px" y="0px" viewBox="0 0 800 420" style="overflow:visible;" xml:space="preserve">
<g>
	<g>
		<path style="fill:#FFFFFF;" d="M675.24,405c-3.07,0-5.86-0.92-8.3-2.74l-89.13-66.33c-0.86-0.64-1.91-0.99-2.98-0.99l-504.39-0.3
			c-14.51-0.03-28.19-6.01-38.52-16.85c-10.09-10.58-15.88-24.95-15.88-39.44L15.91,72.59c-0.01-14.82,5.77-29.52,15.86-40.31
			c10.4-11.12,24.29-17.24,39.13-17.25L728.76,15c14.33,0,27.9,5.69,38.22,16.03c10.89,10.91,17.12,26.05,17.1,41.54l-0.31,207.55
			c-0.04,30.21-25.67,54.81-57.11,54.84l-31.37,0.02c-2.75,0-4.98,2.23-5,4.98l-0.24,51.48c-0.02,5.27-3.9,10.02-7.54,11.81
			C680.19,404.39,677.67,405,675.24,405z"/>
		<path style="fill:#0C1327;" d="M728.76,20L728.76,20c12.99,0,25.31,5.17,34.68,14.56c9.96,9.97,15.66,23.83,15.64,38l-0.31,207.55
			c-0.02,13.35-5.55,25.9-15.58,35.32c-9.8,9.22-23.12,14.51-36.54,14.52l-31.37,0.02c-5.5,0-9.97,4.45-9.99,9.95l-0.24,51.49
			c-0.01,3.27-2.77,6.36-4.75,7.34c-1.64,0.81-3.39,1.23-5.06,1.23c-1.97,0-3.76-0.59-5.32-1.75l-89.13-66.33
			c-1.72-1.28-3.82-1.98-5.96-1.98l-504.37-0.3c-13.14-0.03-25.54-5.46-34.92-15.3c-9.21-9.66-14.49-22.77-14.5-35.99L20.91,72.58
			c-0.01-13.57,5.28-27.02,14.52-36.89c9.44-10.1,22.04-15.66,35.47-15.66L728.76,20 M728.76,10L70.9,10.03
			c-34.07,0.01-60.01,29.36-59.99,62.56l0.12,205.77c0.02,32.72,26.22,61.21,59.4,61.28l504.39,0.3l89.13,66.33
			c3.47,2.58,7.39,3.73,11.29,3.73c3.28,0,6.54-0.81,9.48-2.27c5.24-2.58,10.3-9.03,10.33-16.27l0.24-51.48l31.37-0.02
			c32.92-0.03,62.06-25.99,62.11-59.83l0.31-207.55C789.13,39.11,762.86,10,728.76,10L728.76,10z"/>
	</g>
	<g>
		<path style="fill:#24DA8D;" d="M148.88,247.37c-12.2,0-22.42-2.54-30.65-7.6c-8.23-5.07-14.07-12.2-17.53-21.39
			c-3.45-9.18-4.23-19.95-2.31-32.3c2.94-17.93,10.1-31.49,21.5-40.68c11.39-9.19,25.46-13.78,42.22-13.78
			c6.91,0,13.63,1.03,20.17,3.09s11.8,5.07,15.77,9.04l-9.04,18.74c-3.53-3.23-7.65-5.62-12.35-7.17c-4.7-1.54-9.26-2.31-13.67-2.31
			c-9.41,0-17.38,2.9-23.92,8.71c-6.54,5.81-10.77,14.59-12.68,26.35c-1.91,11.61-0.48,20.8,4.3,27.56
			c4.77,6.77,12.31,10.15,22.6,10.15c4.41,0,9.15-0.84,14.22-2.54c5.07-1.69,9.81-4.37,14.22-8.05l7.94,18.96
			c-4.56,3.97-10.55,7.17-17.97,9.59C164.27,246.16,156.67,247.37,148.88,247.37z"/>
		<path style="fill:#24DA8D;" d="M206.2,245.16L232,82.89h27.56l-11.68,73.2h-3.31c4.41-8.08,10.32-14.18,17.75-18.3
			c7.42-4.11,15.77-6.18,25.02-6.18c13.52,0,23,3.94,28.44,11.79c5.44,7.87,6.91,19.66,4.41,35.39l-10.36,66.36h-27.56l10.36-66.36
			c1.47-9.11,0.73-15.65-2.2-19.62c-2.94-3.97-7.94-5.95-14.99-5.95c-8.53,0-15.58,2.61-21.17,7.82
			c-5.59,5.22-9.04,12.17-10.36,20.84l-10.14,63.28H206.2z"/>
		<path style="fill:#24DA8D;" d="M395.81,247.37c-13.08,0-23.92-2.57-32.52-7.72c-8.6-5.14-14.66-12.38-18.19-21.72
			c-3.53-9.33-4.34-20.17-2.42-32.52c1.76-11.17,5.32-20.76,10.69-28.77c5.36-8.01,12.24-14.18,20.61-18.52
			c8.38-4.34,17.93-6.51,28.66-6.51s19.58,2.36,26.57,7.06c6.98,4.7,11.94,11.13,14.88,19.29s3.53,17.6,1.76,28.33l-1.1,7.05h-80.92
			l2.2-14.55h61.51l-4.19,3.53c1.61-10.43,0.55-18.33-3.2-23.7c-3.75-5.36-9.96-8.05-18.63-8.05c-6.17,0-11.5,1.4-15.98,4.19
			c-4.48,2.79-8.08,6.65-10.8,11.58c-2.72,4.93-4.52,10.47-5.4,16.65l-1.1,7.27c-1.62,11.47,0.11,20.33,5.18,26.57
			c5.07,6.25,13.7,9.37,25.91,9.37c5.73,0,11.36-0.84,16.87-2.54c5.51-1.69,10.84-4.44,15.98-8.27l7.94,18.52
			c-6.03,4.41-12.86,7.76-20.5,10.03C411.98,246.22,404.04,247.37,395.81,247.37z"/>
		<path style="fill:#0C1327;" d="M625.99,247.37c-10.14,0-18.74-2.5-25.8-7.5s-12.02-12.09-14.88-21.27
			c-2.87-9.19-3.35-20.03-1.43-32.52c2.94-17.93,9.59-31.49,19.95-40.68c10.36-9.19,22.75-13.78,37.15-13.78
			c9.26,0,17.12,2.24,23.59,6.73c6.47,4.48,10.36,10.55,11.68,18.19l-2.2,0.66l6.17-23.37h26.46c-1.18,4.56-2.31,9.19-3.42,13.89
			c-1.1,4.71-2.02,9.34-2.76,13.89l-13.23,83.56h-27.34l3.75-23.59h3.53c-3.68,7.94-9,14.22-15.98,18.85
			C644.25,245.05,635.83,247.37,625.99,247.37z M635.03,226.2c8.52,0,15.84-2.98,21.94-8.93c6.1-5.95,10.1-14.88,12.02-26.78
			c2.06-12.94,0.84-22.45-3.64-28.55c-4.48-6.1-11.21-9.15-20.17-9.15c-8.53,0-15.8,2.98-21.83,8.93
			c-6.03,5.95-10,14.81-11.91,26.57c-2.06,12.94-0.88,22.49,3.53,28.66C619.38,223.11,626.06,226.2,635.03,226.2z"/>
		<polygon style="fill:#24DA8D;" points="639.98,82.89 605.13,82.89 498.11,181.22 497.67,181.22 505.22,133.82 477.67,133.82 
			459.97,245.16 487.53,245.16 495.47,195.33 495.91,195.33 537.36,245.16 570.43,245.16 524.61,188.03 		"/>
	</g>
</g>
</svg>
