<?xml version="1.0" encoding="utf-8"?>
<!-- Generator: Adobe Illustrator 30.7.0, SVG Export Plug-In . SVG Version: 9.03 Build 0)  -->
<svg version="1.1" baseProfile="tiny" id="Capa_1" xmlns="http://www.w3.org/2000/svg" xmlns:xlink="http://www.w3.org/1999/xlink"
	 x="0px" y="0px" viewBox="0 0 800 420" overflow="visible" xml:space="preserve">
<g>
	<path fill="#FFFFFF" d="M574.82,339.94l-504.39-0.3c-33.18-0.07-59.38-28.56-59.4-61.28L10.91,72.59
		c-0.02-33.2,25.92-62.55,59.99-62.56L728.76,10c34.1,0,60.37,29.11,60.32,62.58l-0.31,207.55c-0.05,33.84-29.19,59.8-62.11,59.83
		l-31.37,0.02l-0.24,51.48c-0.03,7.24-5.09,13.69-10.33,16.27c-6.45,3.18-14.38,3.29-20.77-1.46L574.82,339.94z"/>
	<g>
		<path fill="#24DA8D" d="M148.88,247.37c-12.2,0-22.42-2.54-30.65-7.6c-8.23-5.07-14.07-12.2-17.53-21.39
			c-3.45-9.18-4.23-19.95-2.31-32.3c2.94-17.93,10.1-31.49,21.5-40.68c11.39-9.19,25.46-13.78,42.22-13.78
			c6.91,0,13.63,1.03,20.17,3.09c6.54,2.06,11.8,5.07,15.77,9.04l-9.04,18.74c-3.53-3.23-7.65-5.62-12.35-7.17
			c-4.7-1.54-9.26-2.31-13.67-2.31c-9.41,0-17.38,2.9-23.92,8.71c-6.54,5.81-10.77,14.59-12.68,26.35
			c-1.91,11.61-0.48,20.8,4.3,27.56c4.77,6.77,12.31,10.15,22.6,10.15c4.41,0,9.15-0.84,14.22-2.54c5.07-1.69,9.81-4.37,14.22-8.05
			l7.94,18.96c-4.56,3.97-10.55,7.17-17.97,9.59C164.27,246.16,156.67,247.37,148.88,247.37z"/>
		<path fill="#24DA8D" d="M206.2,245.16L232,82.89h27.56l-11.68,73.2h-3.31c4.41-8.08,10.32-14.18,17.75-18.3
			c7.42-4.11,15.77-6.18,25.02-6.18c13.52,0,23,3.94,28.44,11.79c5.44,7.87,6.91,19.66,4.41,35.39l-10.36,66.36h-27.56l10.36-66.36
			c1.47-9.11,0.73-15.65-2.2-19.62c-2.94-3.97-7.94-5.95-14.99-5.95c-8.53,0-15.58,2.61-21.17,7.82
			c-5.59,5.22-9.04,12.17-10.36,20.84l-10.14,63.28H206.2z"/>
		<path fill="#24DA8D" d="M395.81,247.37c-13.08,0-23.92-2.57-32.52-7.72c-8.6-5.14-14.66-12.38-18.19-21.72
			c-3.53-9.33-4.34-20.17-2.42-32.52c1.76-11.17,5.32-20.76,10.69-28.77c5.36-8.01,12.24-14.18,20.61-18.52
			c8.38-4.34,17.93-6.51,28.66-6.51c10.73,0,19.58,2.36,26.57,7.06c6.98,4.7,11.94,11.13,14.88,19.29
			c2.94,8.16,3.53,17.6,1.76,28.33l-1.1,7.05h-80.92l2.2-14.55h61.51l-4.19,3.53c1.61-10.43,0.55-18.33-3.2-23.7
			c-3.75-5.36-9.96-8.05-18.63-8.05c-6.17,0-11.5,1.4-15.98,4.19c-4.48,2.79-8.08,6.65-10.8,11.58c-2.72,4.93-4.52,10.47-5.4,16.65
			l-1.1,7.27c-1.62,11.47,0.11,20.33,5.18,26.57c5.07,6.25,13.7,9.37,25.91,9.37c5.73,0,11.36-0.84,16.87-2.54
			c5.51-1.69,10.84-4.44,15.98-8.27l7.94,18.52c-6.03,4.41-12.86,7.76-20.5,10.03C411.98,246.22,404.04,247.37,395.81,247.37z"/>
		<path fill="#0C1327" d="M625.99,247.37c-10.14,0-18.74-2.5-25.8-7.5c-7.06-5-12.02-12.09-14.88-21.27
			c-2.87-9.19-3.35-20.03-1.43-32.52c2.94-17.93,9.59-31.49,19.95-40.68c10.36-9.19,22.75-13.78,37.15-13.78
			c9.26,0,17.12,2.24,23.59,6.73c6.47,4.48,10.36,10.55,11.68,18.19l-2.2,0.66l6.17-23.37h26.46c-1.18,4.56-2.31,9.19-3.42,13.89
			c-1.1,4.71-2.02,9.34-2.76,13.89l-13.23,83.56h-27.34l3.75-23.59h3.53c-3.68,7.94-9,14.22-15.98,18.85
			C644.25,245.05,635.83,247.37,625.99,247.37z M635.03,226.2c8.52,0,15.84-2.98,21.94-8.93c6.1-5.95,10.1-14.88,12.02-26.78
			c2.06-12.94,0.84-22.45-3.64-28.55c-4.48-6.1-11.21-9.15-20.17-9.15c-8.53,0-15.8,2.98-21.83,8.93
			c-6.03,5.95-10,14.81-11.91,26.57c-2.06,12.94-0.88,22.49,3.53,28.66C619.38,223.11,626.06,226.2,635.03,226.2z"/>
		<polygon fill="#24DA8D" points="639.98,82.89 605.13,82.89 498.11,181.22 497.67,181.22 505.22,133.82 477.67,133.82 
			459.97,245.16 487.53,245.16 495.47,195.33 495.91,195.33 537.36,245.16 570.43,245.16 524.61,188.03 		"/>
	</g>
</g>
</svg>
